<svg xmlns="http://www.w3.org/2000/svg" viewBox="0 0 360 120" role="img" aria-labelledby="title desc">
  <title id="title">Barnard College Logo</title>
  <desc id="desc">A clean Barnard College, Columbia University wordmark for the portfolio education section.</desc>
  <rect width="360" height="120" rx="14" fill="#ffffff"/>
  <path d="M36 30h35c21 0 34 10 34 25 0 10-6 18-17 22 14 3 22 12 22 25 0 17-14 28-38 28H36V30Zm28 40h7c7 0 11-4 11-10s-4-10-11-10h-7v20Zm0 39h9c8 0 13-4 13-11s-5-11-13-11h-9v22Z" fill="#002B7F"/>
  <path d="M134 34h2l38 80h-20l-6-14h-30l-6 14H94l40-80Zm7 50-8-19-8 19h16ZM185 41h18l34 42V41h19v73h-16l-36-44v44h-19V41ZM276 41h24c24 0 39 14 39 36s-15 37-39 37h-24V41Zm23 56c12 0 19-8 19-20s-7-19-19-19h-4v39h4Z" fill="#111827"/>
  <text x="134" y="105" font-family="Inter, Arial, sans-serif" font-size="12" font-weight="700" letter-spacing="2.8" fill="#6B1235">BARNARD COLLEGE · COLUMBIA UNIVERSITY</text>
</svg>
