<svg width="300" height="300" viewBox="0 0 300 300" fill="none" xmlns="http://www.w3.org/2000/svg">
<path d="M128.906 110.471C132.92 86.3432 153.891 67.949 179.158 67.949C207.294 67.9491 230.102 90.7574 230.102 118.893C230.102 143.249 213.011 163.613 190.167 168.645C190.572 163.233 190.804 157.789 190.861 152.316L190.862 152.217V152.119C190.84 146.031 190.65 140.431 190.281 135.342L190.266 135.15L190.248 134.958C190.009 132.586 189.802 130.631 189.631 129.117C189.258 124.451 187.328 120.067 183.881 116.62C180.524 113.264 176.28 111.344 171.751 110.902C170.363 110.694 168.865 110.521 167.282 110.378L165.437 110.225C154.658 109.398 142.861 109.456 130.096 110.34L129.659 110.369L129.222 110.427L128.906 110.471Z" fill="#0AD68A"/>
<path d="M69.4405 180.654C69.4405 156.65 86.0421 136.524 108.389 131.13C108.373 131.269 108.356 131.408 108.34 131.545L108.306 131.862L108.284 132.179C107.882 138.205 107.65 144.307 107.588 150.483C107.446 156.605 107.55 162.338 107.925 167.662L107.942 167.915L107.969 168.169C108.096 169.353 108.213 170.432 108.32 171.403L108.61 173.994C109.144 178.647 111.202 182.806 114.445 186.05C117.689 189.293 121.85 191.353 126.503 191.887L126.862 191.928L127.224 191.95C128.303 192.018 129.936 192.162 132.205 192.405L132.353 192.421L132.501 192.433C137.808 192.888 143.48 193.165 149.505 193.271L149.603 193.273L149.702 193.274C155.912 193.296 162.184 192.964 168.516 192.283L168.732 192.261L168.949 192.23C169.312 192.18 169.679 192.125 170.045 192.071C164.862 214.71 144.596 231.599 120.385 231.599C92.2495 231.599 69.4405 208.79 69.4405 180.654Z" fill="#FF673D"/>
<path d="M122.476 172.406C122.644 173.866 123.257 175.126 124.315 176.184C125.373 177.242 126.632 177.855 128.093 178.023C129.472 178.109 131.338 178.278 133.691 178.53C138.639 178.953 143.993 179.216 149.752 179.319C155.429 179.339 161.186 179.036 167.023 178.409C169.293 178.093 170.873 177.815 171.764 177.575C172.655 177.172 173.383 176.688 173.949 176.123C174.514 175.557 174.998 174.829 175.4 173.938C175.721 172.966 175.959 171.426 176.113 169.318C176.579 163.643 176.842 157.926 176.902 152.168C176.881 146.329 176.699 141.057 176.357 136.351C176.105 133.836 175.895 131.849 175.727 130.388C175.64 128.847 175.068 127.547 174.01 126.489C172.951 125.431 171.652 124.858 170.11 124.772C168.569 124.523 166.662 124.313 164.391 124.142C154.412 123.376 143.301 123.416 131.058 124.263C127.492 124.737 125.223 125.458 124.254 126.428C123.284 127.398 122.603 129.625 122.21 133.111C121.826 138.868 121.604 144.707 121.545 150.627C121.404 156.466 121.505 161.819 121.847 166.686C122.099 169.039 122.309 170.945 122.476 172.406Z" fill="black"/>
</svg>
